<svg width="24" height="24" viewBox="0 0 24 24" xmlns="http://www.w3.org/2000/svg" xmlns:xlink="http://www.w3.org/1999/xlink"><title>Golden Ear</title><defs><path d="M16.167 19.268a1.57 1.57 0 0 1-.638-.13c-.587-.325-1.012-.767-1.425-2.066-.429-1.347-1.225-1.984-1.996-2.603-.658-.529-1.341-1.074-1.929-2.187-.437-.832-.679-1.737-.679-2.543 0-2.43 1.83-4.33 4.167-4.33 2.337 0 4.166 1.9 4.166 4.33H19.5c0-3.4-2.563-6.063-5.833-6.063-3.271 0-5.834 2.663-5.834 6.063 0 1.096.317 2.296.888 3.378.758 1.434 1.654 2.149 2.375 2.729.675.541 1.162.931 1.429 1.771.5 1.573 1.146 2.46 2.27 3.075.434.204.893.308 1.372.308 1.837 0 3.333-1.555 3.333-3.465h-1.667c0 .957-.745 1.733-1.666 1.733zM8.362 4.226L7.184 3C5.525 4.724 4.5 7.106 4.5 9.74c0 2.632 1.025 5.015 2.683 6.738l1.18-1.225a7.928 7.928 0 0 1-2.196-5.514c0-2.152.837-4.101 2.196-5.513zm3.221 5.513c0 1.196.934 2.166 2.084 2.166s2.083-.97 2.083-2.166c0-1.195-.933-2.165-2.083-2.165-1.15 0-2.084.97-2.084 2.165z" id="a"/></defs><use fill="#E6BF35" fill-rule="nonzero" xlink:href="#a"/></svg>