<?xml version="1.0" encoding="UTF-8"?>
<svg width="18px" height="18px" viewBox="0 0 18 18" version="1.1" xmlns="http://www.w3.org/2000/svg" xmlns:xlink="http://www.w3.org/1999/xlink">
    <title>Icons / Content / Info Solid</title>
    <g id="Page-1" stroke="none" stroke-width="1" fill="none" fill-rule="evenodd">
        <g id="Hover" transform="translate(-450.000000, -447.000000)" fill="#007BC7">
            <g id="Icons-/-Content-/-Help" transform="translate(449.000000, 446.000000)">
                <path d="M10,1.25 C14.8324916,1.25 18.75,5.16750844 18.75,10 C18.75,14.8324916 14.8324916,18.75 10,18.75 C5.16750844,18.75 1.25,14.8324916 1.25,10 C1.25,5.16750844 5.16750844,1.25 10,1.25 Z M10,2 C5.581722,2 2,5.581722 2,10 C2,14.418278 5.581722,18 10,18 C14.418278,18 18,14.418278 18,10 C18,5.581722 14.418278,2 10,2 Z M10,13 C10.4142136,13 10.75,13.3357864 10.75,13.75 C10.75,14.1642136 10.4142136,14.5 10,14.5 C9.58578644,14.5 9.25,14.1642136 9.25,13.75 C9.25,13.3357864 9.58578644,13 10,13 Z M10,4.625 C11.5445906,4.625 12.8725464,5.8404797 12.874992,7.49946151 C12.8766463,8.65489481 12.024322,9.71912873 10.375,10.7139498 L10.375,10.7139498 L10.375,12 L9.625,12 L9.625,10.2838589 L9.81202557,10.1755148 C11.3764392,9.26924919 12.1262357,8.36948883 12.1249842,7.5005517 C12.1231785,6.27063193 11.144668,5.375 10,5.375 C8.90445286,5.375 7.87366864,6.35157383 7.87498729,7.49956926 L7.87498729,7.49956926 L7.12498424,7.50043074 C7.12318201,5.92834586 8.49887763,4.625 10,4.625 Z" id="↳-🎨-Color"></path>
            </g>
        </g>
    </g>
</svg>