<?xml version="1.0" encoding="UTF-8"?>
<svg
    viewBox="0 0 24 24"
    xmlns="http://www.w3.org/2000/svg"
    width="18"
    height="20"
    style="padding-bottom: 4px;padding-right:1px;"
>
    <g class="nc-icon-wrapper" fill="#ffffff">
        <g stroke="none" stroke-width="1">
            <path
                fill="#00b386"
                d="M17.571 6c.237 0 .429.192.429.429V17.57a.429.429 0 0 1-.429.429h-.857a.429.429 0 0 1-.428-.429v-4.714H7.714v4.714a.429.429 0 0 1-.428.429h-.857A.429.429 0 0 1 6 17.571V6.43C6 6.192 6.192 6 6.429 6h.857c.236 0 .428.192.428.429v4.714h8.572V6.429c0-.237.192-.429.428-.429h.857zM4.625 8c.207 0 .375.201.375.45v8.1c0 .249-.168.45-.375.45h-.75c-.207 0-.375-.201-.375-.45V13.4H2.375c-.207 0-.375-.201-.375-.45v-.9c0-.249.168-.45.375-.45H3.5V8.45c0-.249.168-.45.375-.45h.75zM22.5 11.6c.276 0 .5.201.5.45v.9c0 .249-.224.45-.5.45H21v3.15c0 .249-.224.45-.5.45h-1c-.276 0-.5-.201-.5-.45v-8.1c0-.249.224-.45.5-.45h1c.276 0 .5.201.5.45v3.15h1.5z"
            ></path>
        </g>
    </g>
</svg>
