<?xml version="1.0" encoding="UTF-8"?>
<svg width="22px" height="22px" viewBox="0 0 22 22" version="1.1" xmlns="http://www.w3.org/2000/svg" xmlns:xlink="http://www.w3.org/1999/xlink">
    <!-- Generator: Sketch 63.1 (92452) - https://sketch.com -->
    <title>↳ 🎨 Color</title>
    <desc>Created with Sketch.</desc>
    <g id="Page-1" stroke="none" stroke-width="1" fill="none" fill-rule="evenodd">
        <g id="KF-Learn-Copy-2" transform="translate(-20.000000, -21.000000)" fill="#FFFFFF">
            <path d="M27.8375299,21.0527257 C29.2559698,20.6726558 30.963834,22.3762263 32.4173846,25.2306919 C35.1028963,23.4851052 37.4334742,22.8638663 38.4717695,23.9021616 C38.5440426,23.9744347 38.6088608,24.0534926 38.6660573,24.1389455 C38.7721371,24.2974311 38.7296538,24.5119038 38.5711682,24.6179836 C38.4126826,24.7240634 38.1982099,24.6815802 38.0921301,24.5230946 C38.0598821,24.4749154 38.0236949,24.4307782 37.9834239,24.3905072 C37.2269604,23.6340437 35.1674941,24.2560894 32.7252047,25.8607752 C33.1128517,26.686756 33.4783342,27.5939884 33.8106259,28.5634144 C34.7807476,28.8958833 35.6884356,29.2615925 36.5146462,29.6493282 C36.7157907,29.3446434 36.9012971,29.0440836 37.0716344,28.7488252 C37.1669351,28.5836332 37.3781061,28.5269752 37.5432981,28.6222759 C37.7084901,28.7175766 37.7651482,28.9287477 37.6698474,29.0939397 C37.5066605,29.376804 37.3302798,29.664019 37.1415773,29.9543716 C39.9967365,31.4091265 41.7013833,33.1175583 41.3212054,34.5364012 C40.9411665,35.954726 38.6122464,36.5820078 35.4138322,36.4137297 C35.5820083,39.6122459 34.9547265,41.941166 33.5364017,42.3212049 C33.4376748,42.3476587 33.3367995,42.3642639 33.2341969,42.3710711 C33.0439045,42.3836961 32.8794073,42.2396682 32.8667823,42.0493757 C32.85556,41.8802269 32.968113,41.7314595 33.1269118,41.6916214 L33.1884777,41.6819611 C33.2463261,41.6781231 33.3026436,41.6688526 33.3576548,41.6541124 C34.3910055,41.3772269 34.8820312,39.2826451 34.7134739,36.3652071 C33.8042658,36.2879455 32.8356979,36.1508217 31.8298564,35.9538405 C31.0570424,36.6279697 30.2865244,37.2311559 29.5376682,37.7527748 C29.7008995,38.0789373 29.8685193,38.3900304 30.0391355,38.6853205 C30.1345455,38.8504493 30.0780273,39.0616579 29.9128985,39.157068 C29.7477696,39.2524781 29.5365611,39.1959598 29.441151,39.030831 C29.2776796,38.7479066 29.1170406,38.4513645 28.9598498,38.142569 C26.2731015,39.8882744 23.9409175,40.5105245 22.9021621,39.471769 C21.8638668,38.4334737 22.4851056,36.1028958 24.2300824,33.4170958 C21.3762268,31.9638335 19.6726563,30.2559693 20.0527261,28.8375294 C20.07918,28.7388024 20.1152371,28.6431393 20.1606432,28.5508793 C20.2448558,28.3797686 20.4518362,28.3093239 20.6229469,28.3935365 C20.7940575,28.4777492 20.8645022,28.6847296 20.7802896,28.8558402 C20.7546892,28.9078574 20.7345589,28.961265 20.7198187,29.0162763 C20.4429443,30.0495854 22.0112553,31.5220402 24.6219205,32.8347443 C25.1436469,32.0862932 25.7464482,31.3163302 26.4196778,30.5440117 C26.2229675,29.5374596 26.085816,28.5684346 26.0084888,27.6589669 C25.6442613,27.6370171 25.2911028,27.6266373 24.9501276,27.6267502 C24.7594168,27.6268133 24.6047639,27.4722628 24.6047008,27.281552 C24.6046376,27.0908412 24.7591881,26.9361883 24.9498989,26.9361252 C25.2765912,26.936017 25.6136564,26.9451671 25.9596062,26.9634266 C25.7914358,23.7634953 26.4186539,21.4329123 27.8375299,21.0527257 Z M32.5138945,40.5816536 C32.6902825,41.2399425 32.2996246,41.9165817 31.6413358,42.0929697 C30.983047,42.2693576 30.3064077,41.8786998 30.1300198,41.2204109 C29.9536318,40.5621221 30.3442897,39.8854829 31.0025785,39.7090949 C31.6608673,39.5327069 32.3375066,39.9233648 32.5138945,40.5816536 Z M31.1813254,40.3761874 C30.8914616,40.4538562 30.7194435,40.7518002 30.7971123,41.041664 C30.8747811,41.3315278 31.1727251,41.5035459 31.4625889,41.4258771 C31.7524527,41.3482084 31.9244708,41.0502643 31.846802,40.7604005 C31.7691332,40.4705367 31.4711892,40.2985187 31.1813254,40.3761874 Z M24.8608986,33.7253594 L24.7927867,33.8293583 C23.2386444,36.2259138 22.644822,38.2377377 23.3905077,38.9834234 C24.147263,39.7401787 26.2080266,39.1173611 28.6515534,37.511298 C28.2606565,36.6793092 27.8950339,35.7717417 27.5652312,34.8124774 C26.5950036,34.4787424 25.6872184,34.1130679 24.8608986,33.7253594 Z M28.3938892,35.0823067 L28.4465419,35.2275362 C28.6921061,35.8910411 28.9546325,36.5242719 29.2300311,37.1183215 C29.7989281,36.7174042 30.3839271,36.2678035 30.9741687,35.7734829 C30.5468849,35.6776055 30.114121,35.5710491 29.6775715,35.454076 C29.2407142,35.3370204 28.8123555,35.2128265 28.3938892,35.0823067 Z M36.7487611,30.5375525 L36.5268769,30.850992 C36.0556034,31.5050168 35.5283219,32.168353 34.9544878,32.8278465 C35.1506745,33.8346541 35.2879044,34.8037757 35.3653054,35.7133485 C38.2826456,35.8820307 40.3772274,35.391005 40.6541129,34.3576543 C40.9311021,33.3239165 39.3613746,31.8506685 36.7487611,30.5375525 Z M34.3693459,33.4800767 L34.1341021,33.7340828 C33.9097642,33.9724801 33.6798044,34.2095596 33.4446822,34.4446817 C33.125008,34.764356 32.8034027,35.0731097 32.4812651,35.370143 C33.2389368,35.502407 33.9693448,35.5991796 34.6612113,35.6613295 C34.6115507,35.1073449 34.5396239,34.5287342 34.444783,33.931449 L34.3693459,33.4800767 Z M29.7436128,28.1657752 L29.6970426,28.2082009 C29.2696854,28.5896304 28.8418426,28.9933468 28.417595,29.4175945 C27.9780228,29.8571667 27.5604919,30.3005983 27.1669551,30.7433505 C27.2859875,31.3235564 27.4259443,31.9167402 27.5869476,32.5176127 C27.7467711,33.1140822 27.9215781,33.6979338 28.1091095,34.2642478 C28.6720763,34.4506909 29.2556112,34.6260245 29.8563184,34.7869835 C30.4569101,34.9479116 31.0498204,35.0878128 31.6301389,35.2072659 C32.0727903,34.8139499 32.5164956,34.3961772 32.9563366,33.9563361 C33.3930635,33.5196093 33.8113644,33.0762128 34.2081065,32.6305655 C34.0879441,32.0503742 33.9479873,31.4571904 33.786984,30.8563179 C33.6261027,30.2559008 33.4508607,29.6726394 33.2642118,29.1104934 C32.7024188,28.923409 32.1186104,28.7479838 31.5176132,28.5869471 C30.9210453,28.4270972 30.3279142,28.2865387 29.7436128,28.1657752 Z M26.6002914,31.4001775 L26.4755781,31.5499 C26.0307847,32.0884378 25.6236741,32.6218255 25.2578204,33.1417545 C25.8883618,33.4339204 26.5697374,33.7154869 27.2923913,33.9792602 C27.1607311,33.5596657 27.0363737,33.1312132 26.9198551,32.6963596 C26.8029276,32.2599803 26.6964086,31.8273837 26.6002914,31.4001775 Z M28.9799937,31.2295835 C29.2325987,30.2868489 30.2016129,29.7273883 31.1443476,29.9799933 C32.0870822,30.2325982 32.6465428,31.2016124 32.3939378,32.1443471 C32.1413329,33.0870817 31.1723186,33.6465423 30.229584,33.3939373 C29.2868494,33.1413324 28.7273888,32.1723181 28.9799937,31.2295835 Z M30.9656007,30.6470858 C30.3912911,30.4932 29.8009721,30.8340208 29.6470863,31.4083304 C29.4932005,31.98264 29.8340213,32.572959 30.4083309,32.7268448 C30.9826405,32.8807306 31.5729595,32.5399098 31.7268453,31.9656002 C31.8807311,31.3912906 31.5399103,30.8009716 30.9656007,30.6470858 Z M34.0823551,29.3949679 L34.1168783,29.5054413 C34.2347962,29.8883897 34.3474006,30.2794512 34.4540765,30.677571 C34.5711237,31.1143969 34.677741,31.5474325 34.7739353,31.9750649 C35.2646693,31.3912516 35.7148147,30.8076651 36.1186048,30.2337699 C35.4869733,29.9406021 34.805325,29.6588811 34.0823551,29.3949679 Z M26.7121867,27.7095848 L26.7267015,27.8641755 C26.788984,28.5106467 26.8811027,29.1895035 27.0041577,29.8914129 C27.3013408,29.5699874 27.609844,29.2486542 27.9292493,28.9292489 C28.2491924,28.6093058 28.5710698,28.3003016 28.8934793,28.0030381 C28.2924213,27.8969487 27.7045073,27.8129561 27.1354012,27.7514715 L26.7121867,27.7095848 Z M22.7092327,26.4379131 C23.3675215,26.614301 23.7581794,27.2909403 23.5817914,27.9492291 C23.4054034,28.6075179 22.7287642,28.9981758 22.0704754,28.8217878 C21.4121865,28.6453999 21.0215287,27.9687606 21.1979167,27.3104718 C21.3743046,26.652183 22.0509438,26.2615251 22.7092327,26.4379131 Z M32.1416289,26.2577385 L32.0174667,26.3458809 C31.4882298,26.7234241 30.9458384,27.1430814 30.3989507,27.6011279 C30.8281602,27.6967776 31.2614478,27.8033202 31.6963601,27.9198546 C32.1327606,28.0367878 32.5606803,28.1608444 32.9787298,28.2912145 C32.7677972,27.7132129 32.5455385,27.1618844 32.3155312,26.6418369 L32.1416289,26.2577385 Z M39.2216449,25.6574544 C39.7035458,26.1393553 39.7035458,26.920671 39.2216449,27.4025719 C38.739744,27.8844727 37.9584283,27.8844727 37.4765275,27.4025719 C36.9946266,26.920671 36.9946266,26.1393553 37.4765275,25.6574544 C37.9584283,25.1755536 38.739744,25.1755536 39.2216449,25.6574544 Z M31.8347448,25.62192 C30.5220407,23.0112548 29.0495859,21.4429438 28.0162768,21.7198182 C26.9825924,21.9967931 26.4915833,24.0926387 26.6606213,27.0115505 C27.5772876,27.0896428 28.5457262,27.2267563 29.5410062,27.4206973 C30.2516,26.8027413 30.9596531,26.243194 31.6507664,25.7517192 L31.8347448,25.62192 Z M37.9648731,26.1458001 C37.7526781,26.3579951 37.7526781,26.7020312 37.9648731,26.9142263 C38.1770681,27.1264213 38.5211043,27.1264213 38.7332993,26.9142263 C38.9454943,26.7020312 38.9454943,26.3579951 38.7332993,26.1458001 C38.5211043,25.933605 38.1770681,25.933605 37.9648731,26.1458001 Z" id="↳-🎨-Color"></path>
        </g>
    </g>
</svg>