<?xml version="1.0" encoding="UTF-8"?>
<svg width="23px" height="23px" viewBox="0 0 23 23" version="1.1" xmlns="http://www.w3.org/2000/svg" xmlns:xlink="http://www.w3.org/1999/xlink">
    <!-- Generator: Sketch 63.1 (92452) - https://sketch.com -->
    <title>sell</title>
    <desc>Created with Sketch.</desc>
    <g id="Page-1" stroke="none" stroke-width="1" fill="none" fill-rule="evenodd">
        <g id="KF-Sell-Actions-Copy-2" transform="translate(-22.000000, -21.000000)" fill="#FFFFFF">
            <g id="Icons-/-Hub-/-Sell-32px" transform="translate(20.000000, 20.000000)">
                <path d="M6.01163194,2.4375 L6.0115,20.3273364 L24.1041667,20.3282986 L24.1041667,21.1782986 L6.0115,21.1773364 L6.01163194,23.3819444 L5.16163194,23.3819444 L5.1615,21.1773364 L2.4375,21.1782986 L2.4375,20.3282986 L5.1615,20.3273364 L5.16163194,2.4375 L6.01163194,2.4375 Z M23.7272569,1.90233635 L23.7272569,10.0279739 L21.461375,8.5011875 L18.5754976,13.3106896 L14.58925,13.310375 L14.0444637,13.9596459 C13.1196021,15.0573543 12.3937502,15.9002877 11.8659408,16.4894619 L11.8659408,16.4894619 L11.4443577,16.951231 C10.4117612,18.0543528 9.33944698,18.265071 8.45421269,17.4822484 C7.5934809,16.7210936 7.69515174,15.7091893 8.67049691,14.6222132 C8.91861749,14.3456946 9.31527349,13.9157673 9.86071348,13.3321576 L9.86071348,13.3321576 L12.9387098,10.0697415 L16.5238125,10.0693125 L18.71675,6.790875 L16.4586704,5.18973131 L23.7272569,1.90233635 Z M23.036,2.972125 L17.8400625,5.3226875 L19.6648066,6.61634235 L16.8931374,10.7603665 L13.2348125,10.7599375 L10.9621061,13.1669864 C10.3726384,13.7943282 9.90827514,14.2924177 9.56920766,14.6610438 L9.56920766,14.6610438 L9.07784145,15.2062157 C8.43467095,15.9720847 8.40721073,16.5187562 8.91171451,16.9648946 C9.47813723,17.4657886 10.1381101,17.3360986 10.9401608,16.4792687 C11.4406381,15.9446094 12.2516486,15.0130578 13.371321,13.6865799 L13.371321,13.6865799 L14.266995,12.6200646 L18.1845625,12.61975 L21.2449128,7.52234041 L23.036,8.7286875 L23.036,2.972125 Z" id="Combined-Shape"></path>
            </g>
        </g>
    </g>
</svg>